<svg xmlns="http://www.w3.org/2000/svg" viewBox="0 0 512 512" width="512" height="512">
  <defs>
    <radialGradient id="bg" cx="50%" cy="42%" r="70%">
      <stop offset="0%" stop-color="#15102e"/>
      <stop offset="100%" stop-color="#04040a"/>
    </radialGradient>
    <radialGradient id="glow" cx="50%" cy="50%" r="50%">
      <stop offset="0%" stop-color="#b06cff" stop-opacity="0.9"/>
      <stop offset="100%" stop-color="#b06cff" stop-opacity="0"/>
    </radialGradient>
  </defs>
  <rect width="512" height="512" rx="112" fill="url(#bg)"/>
  <circle cx="256" cy="240" r="150" fill="url(#glow)"/>
  <!-- constellation: a simple eagle-ish spread -->
  <g stroke="#cdb6ff" stroke-width="3" fill="none" opacity="0.9"
     stroke-linecap="round">
    <path d="M256 150 L256 210 L256 330"/>
    <path d="M256 210 L190 230 L120 200"/>
    <path d="M190 230 L210 270"/>
    <path d="M256 210 L322 230 L392 200"/>
    <path d="M322 230 L302 270"/>
  </g>
  <g fill="#ffffff">
    <circle cx="256" cy="150" r="7"/>
    <circle cx="256" cy="210" r="6"/>
    <circle cx="256" cy="330" r="6"/>
    <circle cx="190" cy="230" r="6"/>
    <circle cx="120" cy="200" r="7"/>
    <circle cx="322" cy="230" r="6"/>
    <circle cx="392" cy="200" r="7"/>
    <circle cx="210" cy="270" r="5"/>
    <circle cx="302" cy="270" r="5"/>
  </g>
</svg>
